<mxfile host="app.diagrams.net" agent="Mozilla/5.0 (Macintosh; Intel Mac OS X 10_15_7) AppleWebKit/537.36 (KHTML, like Gecko) Chrome/138.0.0.0 Safari/537.36" version="28.2.0">
  <diagram name="APISIX to Kafka Options" id="eqnZwshsYVItsBJIR4od">
    <mxGraphModel dx="2946" dy="1126" grid="1" gridSize="10" guides="1" tooltips="1" connect="1" arrows="1" fold="1" page="1" pageScale="1" pageWidth="1600" pageHeight="900" math="0" shadow="0">
      <root>
        <mxCell id="0" />
        <mxCell id="1" parent="0" />
        <mxCell id="OJCGHoA61KZwXOzBD94Q-4" value="APISIX to Confluent Kafka Integration Options" style="text;html=1;strokeColor=none;fillColor=none;align=center;verticalAlign=middle;whiteSpace=wrap;rounded=0;fontSize=18;fontStyle=1;" vertex="1" parent="1">
          <mxGeometry x="570" y="50" width="400" height="30" as="geometry" />
        </mxCell>
        <mxCell id="OJCGHoA61KZwXOzBD94Q-5" value="Client/User" style="rounded=1;whiteSpace=wrap;html=1;fillColor=#d5e8d4;strokeColor=#82b366;fontStyle=1;fontSize=12;" vertex="1" parent="1">
          <mxGeometry x="30" y="240" width="100" height="60" as="geometry" />
        </mxCell>
        <mxCell id="OJCGHoA61KZwXOzBD94Q-6" value="APISIX&#xa;API Gateway&#xa;(Request/Response&#xa;Capture)" style="rounded=1;whiteSpace=wrap;html=1;fillColor=#ffe6cc;strokeColor=#d79b00;fontStyle=1;fontSize=12;" vertex="1" parent="1">
          <mxGeometry x="270" y="220" width="140" height="100" as="geometry" />
        </mxCell>
        <mxCell id="OJCGHoA61KZwXOzBD94Q-7" value="LLM Models&#xa;(Multiple Endpoints)" style="rounded=1;whiteSpace=wrap;html=1;fillColor=#f8cecc;strokeColor=#b85450;fontSize=11;" vertex="1" parent="1">
          <mxGeometry x="280" y="10" width="120" height="80" as="geometry" />
        </mxCell>
        <mxCell id="OJCGHoA61KZwXOzBD94Q-8" value="Confluent Kafka Topic&#xa;(Final Destination)" style="rounded=1;whiteSpace=wrap;html=1;fillColor=#dae8fc;strokeColor=#6c8ebf;fontStyle=1;fontSize=12;" vertex="1" parent="1">
          <mxGeometry x="1330" y="320" width="160" height="80" as="geometry" />
        </mxCell>
        <mxCell id="OJCGHoA61KZwXOzBD94Q-9" value="" style="rounded=1;whiteSpace=wrap;html=1;fillColor=#e6f7ff;strokeColor=#1890ff;opacity=30;" vertex="1" parent="1">
          <mxGeometry x="630" y="110" width="580" height="120" as="geometry" />
        </mxCell>
        <mxCell id="OJCGHoA61KZwXOzBD94Q-10" value="Option 1: Kafka Logger Plugin (Best Option - SSL Issues)" style="text;html=1;strokeColor=none;fillColor=none;align=left;verticalAlign=middle;whiteSpace=wrap;rounded=0;fontSize=12;fontStyle=1;fontColor=#1890ff;" vertex="1" parent="1">
          <mxGeometry x="640" y="120" width="350" height="20" as="geometry" />
        </mxCell>
        <mxCell id="OJCGHoA61KZwXOzBD94Q-11" value="Kafka Logger&#xa;Plugin" style="rounded=1;whiteSpace=wrap;html=1;fillColor=#b3d9ff;strokeColor=#1890ff;fontSize=10;" vertex="1" parent="1">
          <mxGeometry x="670" y="150" width="90" height="60" as="geometry" />
        </mxCell>
        <mxCell id="OJCGHoA61KZwXOzBD94Q-12" value="SSL&#xa;Config&#xa;Issue" style="ellipse;whiteSpace=wrap;html=1;fillColor=#ffcccc;strokeColor=#ff4d4d;fontSize=9;" vertex="1" parent="1">
          <mxGeometry x="830" y="160" width="60" height="40" as="geometry" />
        </mxCell>
        <mxCell id="OJCGHoA61KZwXOzBD94Q-13" value="Status: Blocked by SSL" style="text;html=1;strokeColor=none;fillColor=none;align=left;verticalAlign=middle;whiteSpace=wrap;rounded=0;fontSize=10;fontColor=#ff4d4f;" vertex="1" parent="1">
          <mxGeometry x="900" y="160" width="120" height="20" as="geometry" />
        </mxCell>
        <mxCell id="OJCGHoA61KZwXOzBD94Q-14" value="" style="rounded=1;whiteSpace=wrap;html=1;fillColor=#f6ffed;strokeColor=#52c41a;opacity=30;" vertex="1" parent="1">
          <mxGeometry x="630" y="250" width="580" height="120" as="geometry" />
        </mxCell>
        <mxCell id="OJCGHoA61KZwXOzBD94Q-15" value="Option 2: HDFS Workaround (Temporary Solution)" style="text;html=1;strokeColor=none;fillColor=none;align=left;verticalAlign=middle;whiteSpace=wrap;rounded=0;fontSize=12;fontStyle=1;fontColor=#52c41a;" vertex="1" parent="1">
          <mxGeometry x="640" y="260" width="300" height="20" as="geometry" />
        </mxCell>
        <mxCell id="OJCGHoA61KZwXOzBD94Q-16" value="HDFS&#xa;Log Files" style="rounded=1;whiteSpace=wrap;html=1;fillColor=#d9f7be;strokeColor=#52c41a;fontSize=10;" vertex="1" parent="1">
          <mxGeometry x="670" y="290" width="80" height="60" as="geometry" />
        </mxCell>
        <mxCell id="OJCGHoA61KZwXOzBD94Q-17" value="HDFS Producer&#xa;Application" style="rounded=1;whiteSpace=wrap;html=1;fillColor=#d9f7be;strokeColor=#52c41a;fontSize=10;" vertex="1" parent="1">
          <mxGeometry x="800" y="290" width="100" height="60" as="geometry" />
        </mxCell>
        <mxCell id="OJCGHoA61KZwXOzBD94Q-18" value="Status: Active (Temporary)" style="text;html=1;strokeColor=none;fillColor=none;align=left;verticalAlign=middle;whiteSpace=wrap;rounded=0;fontSize=10;fontColor=#52c41a;" vertex="1" parent="1">
          <mxGeometry x="930" y="300" width="140" height="20" as="geometry" />
        </mxCell>
        <mxCell id="OJCGHoA61KZwXOzBD94Q-19" value="" style="rounded=1;whiteSpace=wrap;html=1;fillColor=#fff7e6;strokeColor=#fa8c16;opacity=30;" vertex="1" parent="1">
          <mxGeometry x="630" y="390" width="580" height="120" as="geometry" />
        </mxCell>
        <mxCell id="OJCGHoA61KZwXOzBD94Q-20" value="Option 3: Kafka Producer REST API (Rate Limiting Issues)" style="text;html=1;strokeColor=none;fillColor=none;align=left;verticalAlign=middle;whiteSpace=wrap;rounded=0;fontSize=12;fontStyle=1;fontColor=#fa8c16;" vertex="1" parent="1">
          <mxGeometry x="640" y="400" width="350" height="20" as="geometry" />
        </mxCell>
        <mxCell id="OJCGHoA61KZwXOzBD94Q-21" value="Kafka Producer&#xa;REST API" style="rounded=1;whiteSpace=wrap;html=1;fillColor=#ffe7ba;strokeColor=#fa8c16;fontSize=10;" vertex="1" parent="1">
          <mxGeometry x="670" y="430" width="90" height="60" as="geometry" />
        </mxCell>
        <mxCell id="OJCGHoA61KZwXOzBD94Q-22" value="Rate&#xa;Limiting" style="ellipse;whiteSpace=wrap;html=1;fillColor=#ffcccc;strokeColor=#ff4d4d;fontSize=9;" vertex="1" parent="1">
          <mxGeometry x="830" y="440" width="60" height="40" as="geometry" />
        </mxCell>
        <mxCell id="OJCGHoA61KZwXOzBD94Q-23" value="Status: Performance Limited" style="text;html=1;strokeColor=none;fillColor=none;align=left;verticalAlign=middle;whiteSpace=wrap;rounded=0;fontSize=10;fontColor=#fa8c16;" vertex="1" parent="1">
          <mxGeometry x="900" y="460" width="150" height="20" as="geometry" />
        </mxCell>
        <mxCell id="OJCGHoA61KZwXOzBD94Q-24" value="" style="rounded=1;whiteSpace=wrap;html=1;fillColor=#f0f5ff;strokeColor=#722ed1;opacity=30;" vertex="1" parent="1">
          <mxGeometry x="630" y="530" width="580" height="120" as="geometry" />
        </mxCell>
        <mxCell id="OJCGHoA61KZwXOzBD94Q-25" value="Option 4: Redis Streams Integration" style="text;html=1;strokeColor=none;fillColor=none;align=left;verticalAlign=middle;whiteSpace=wrap;rounded=0;fontSize=12;fontStyle=1;fontColor=#722ed1;" vertex="1" parent="1">
          <mxGeometry x="640" y="540" width="250" height="20" as="geometry" />
        </mxCell>
        <mxCell id="OJCGHoA61KZwXOzBD94Q-26" value="Redis&#xa;Streams" style="rounded=1;whiteSpace=wrap;html=1;fillColor=#d3adf7;strokeColor=#722ed1;fontSize=10;" vertex="1" parent="1">
          <mxGeometry x="670" y="570" width="80" height="60" as="geometry" />
        </mxCell>
        <mxCell id="OJCGHoA61KZwXOzBD94Q-27" value="Redis to Kafka&#xa;Consumer App" style="rounded=1;whiteSpace=wrap;html=1;fillColor=#d3adf7;strokeColor=#722ed1;fontSize=10;" vertex="1" parent="1">
          <mxGeometry x="870" y="570" width="100" height="60" as="geometry" />
        </mxCell>
        <mxCell id="OJCGHoA61KZwXOzBD94Q-28" value="Status: Under Evaluation" style="text;html=1;strokeColor=none;fillColor=none;align=left;verticalAlign=middle;whiteSpace=wrap;rounded=0;fontSize=10;fontColor=#722ed1;" vertex="1" parent="1">
          <mxGeometry x="1030" y="580" width="150" height="20" as="geometry" />
        </mxCell>
        <mxCell id="OJCGHoA61KZwXOzBD94Q-29" value="API Requests" style="edgeStyle=orthogonalEdgeStyle;rounded=0;orthogonalLoop=1;jettySize=auto;html=1;fontSize=9;" edge="1" parent="1" source="OJCGHoA61KZwXOzBD94Q-5" target="OJCGHoA61KZwXOzBD94Q-6">
          <mxGeometry relative="1" as="geometry" />
        </mxCell>
        <mxCell id="OJCGHoA61KZwXOzBD94Q-30" value="Route &amp; Capture" style="edgeStyle=orthogonalEdgeStyle;rounded=0;orthogonalLoop=1;jettySize=auto;html=1;fontSize=9;" edge="1" parent="1" source="OJCGHoA61KZwXOzBD94Q-6" target="OJCGHoA61KZwXOzBD94Q-7">
          <mxGeometry x="0.3846" relative="1" as="geometry">
            <Array as="points">
              <mxPoint x="340" y="270" />
              <mxPoint x="340" y="50" />
            </Array>
            <mxPoint as="offset" />
          </mxGeometry>
        </mxCell>
        <mxCell id="OJCGHoA61KZwXOzBD94Q-31" value="Direct Log" style="edgeStyle=orthogonalEdgeStyle;rounded=0;orthogonalLoop=1;jettySize=auto;html=1;fontSize=9;strokeColor=#1890ff;" edge="1" parent="1" source="OJCGHoA61KZwXOzBD94Q-6" target="OJCGHoA61KZwXOzBD94Q-11">
          <mxGeometry relative="1" as="geometry">
            <Array as="points">
              <mxPoint x="370" y="180" />
            </Array>
          </mxGeometry>
        </mxCell>
        <mxCell id="OJCGHoA61KZwXOzBD94Q-32" value="SSL Issue" style="edgeStyle=orthogonalEdgeStyle;rounded=0;orthogonalLoop=1;jettySize=auto;html=1;fontSize=9;strokeColor=#ff4d4d;dashed=1;" edge="1" parent="1" source="OJCGHoA61KZwXOzBD94Q-11" target="OJCGHoA61KZwXOzBD94Q-12">
          <mxGeometry relative="1" as="geometry" />
        </mxCell>
        <mxCell id="OJCGHoA61KZwXOzBD94Q-33" value="Blocked" style="edgeStyle=orthogonalEdgeStyle;rounded=0;orthogonalLoop=1;jettySize=auto;html=1;fontSize=9;strokeColor=#ff4d4d;dashed=1;" edge="1" parent="1" source="OJCGHoA61KZwXOzBD94Q-12" target="OJCGHoA61KZwXOzBD94Q-8">
          <mxGeometry relative="1" as="geometry">
            <Array as="points">
              <mxPoint x="1150" y="180" />
              <mxPoint x="1150" y="330" />
            </Array>
          </mxGeometry>
        </mxCell>
        <mxCell id="OJCGHoA61KZwXOzBD94Q-34" value="Write Logs" style="edgeStyle=orthogonalEdgeStyle;rounded=0;orthogonalLoop=1;jettySize=auto;html=1;fontSize=9;strokeColor=#52c41a;" edge="1" parent="1" source="OJCGHoA61KZwXOzBD94Q-6" target="OJCGHoA61KZwXOzBD94Q-16">
          <mxGeometry relative="1" as="geometry">
            <Array as="points">
              <mxPoint x="505" y="230" />
              <mxPoint x="505" y="300" />
            </Array>
          </mxGeometry>
        </mxCell>
        <mxCell id="OJCGHoA61KZwXOzBD94Q-35" value="Read &amp; Process" style="edgeStyle=orthogonalEdgeStyle;rounded=0;orthogonalLoop=1;jettySize=auto;html=1;fontSize=9;strokeColor=#52c41a;" edge="1" parent="1" source="OJCGHoA61KZwXOzBD94Q-16" target="OJCGHoA61KZwXOzBD94Q-17">
          <mxGeometry relative="1" as="geometry" />
        </mxCell>
        <mxCell id="OJCGHoA61KZwXOzBD94Q-36" value="Produce to Kafka" style="edgeStyle=orthogonalEdgeStyle;rounded=0;orthogonalLoop=1;jettySize=auto;html=1;fontSize=9;strokeColor=#52c41a;" edge="1" parent="1" source="OJCGHoA61KZwXOzBD94Q-17" target="OJCGHoA61KZwXOzBD94Q-8">
          <mxGeometry relative="1" as="geometry">
            <Array as="points">
              <mxPoint x="1120" y="320" />
              <mxPoint x="1120" y="380" />
            </Array>
          </mxGeometry>
        </mxCell>
        <mxCell id="OJCGHoA61KZwXOzBD94Q-37" value="HTTP Calls" style="edgeStyle=orthogonalEdgeStyle;rounded=0;orthogonalLoop=1;jettySize=auto;html=1;fontSize=9;strokeColor=#fa8c16;" edge="1" parent="1" source="OJCGHoA61KZwXOzBD94Q-6" target="OJCGHoA61KZwXOzBD94Q-21">
          <mxGeometry relative="1" as="geometry">
            <Array as="points">
              <mxPoint x="470" y="300" />
              <mxPoint x="470" y="460" />
            </Array>
          </mxGeometry>
        </mxCell>
        <mxCell id="OJCGHoA61KZwXOzBD94Q-38" value="Rate Limiting" style="edgeStyle=orthogonalEdgeStyle;rounded=0;orthogonalLoop=1;jettySize=auto;html=1;fontSize=9;strokeColor=#ff4d4d;dashed=1;" edge="1" parent="1" source="OJCGHoA61KZwXOzBD94Q-21" target="OJCGHoA61KZwXOzBD94Q-22">
          <mxGeometry x="0.1429" y="10" relative="1" as="geometry">
            <mxPoint as="offset" />
          </mxGeometry>
        </mxCell>
        <mxCell id="OJCGHoA61KZwXOzBD94Q-39" value="Limited Throughput" style="edgeStyle=orthogonalEdgeStyle;rounded=0;orthogonalLoop=1;jettySize=auto;html=1;fontSize=9;strokeColor=#fa8c16;" edge="1" parent="1" source="OJCGHoA61KZwXOzBD94Q-21" target="OJCGHoA61KZwXOzBD94Q-8">
          <mxGeometry relative="1" as="geometry">
            <Array as="points">
              <mxPoint x="1410" y="460" />
            </Array>
          </mxGeometry>
        </mxCell>
        <mxCell id="OJCGHoA61KZwXOzBD94Q-40" value="Stream Data" style="edgeStyle=orthogonalEdgeStyle;rounded=0;orthogonalLoop=1;jettySize=auto;html=1;fontSize=9;strokeColor=#722ed1;" edge="1" parent="1" source="OJCGHoA61KZwXOzBD94Q-6" target="OJCGHoA61KZwXOzBD94Q-26">
          <mxGeometry relative="1" as="geometry">
            <Array as="points">
              <mxPoint x="340" y="600" />
            </Array>
          </mxGeometry>
        </mxCell>
        <mxCell id="OJCGHoA61KZwXOzBD94Q-41" value="Consume &amp; Transform" style="edgeStyle=orthogonalEdgeStyle;rounded=0;orthogonalLoop=1;jettySize=auto;html=1;fontSize=9;strokeColor=#722ed1;" edge="1" parent="1" source="OJCGHoA61KZwXOzBD94Q-26" target="OJCGHoA61KZwXOzBD94Q-27">
          <mxGeometry relative="1" as="geometry" />
        </mxCell>
        <mxCell id="OJCGHoA61KZwXOzBD94Q-42" value="Produce to Kafka" style="edgeStyle=orthogonalEdgeStyle;rounded=0;orthogonalLoop=1;jettySize=auto;html=1;fontSize=9;strokeColor=#722ed1;" edge="1" parent="1" source="OJCGHoA61KZwXOzBD94Q-27" target="OJCGHoA61KZwXOzBD94Q-8">
          <mxGeometry relative="1" as="geometry">
            <Array as="points">
              <mxPoint x="1440" y="600" />
            </Array>
          </mxGeometry>
        </mxCell>
        <mxCell id="OJCGHoA61KZwXOzBD94Q-43" value="" style="rounded=1;whiteSpace=wrap;html=1;fillColor=#fafafa;strokeColor=#d9d9d9;" vertex="1" parent="1">
          <mxGeometry x="260" y="690" width="1150" height="180" as="geometry" />
        </mxCell>
        <mxCell id="OJCGHoA61KZwXOzBD94Q-44" value="Options Summary &amp; Recommendations" style="text;html=1;strokeColor=none;fillColor=none;align=center;verticalAlign=middle;whiteSpace=wrap;rounded=0;fontSize=16;fontStyle=1;" vertex="1" parent="1">
          <mxGeometry x="680" y="700" width="300" height="25" as="geometry" />
        </mxCell>
        <mxCell id="OJCGHoA61KZwXOzBD94Q-45" value="Option 1: Kafka Logger Plugin&#xa;✓ Best Performance&#xa;✓ Native Integration&#xa;✗ SSL Issues (Blocked)&#xa;Recommendation: Fix SSL - Priority #1" style="rounded=1;whiteSpace=wrap;html=1;fillColor=#e6f7ff;strokeColor=#1890ff;fontSize=10;align=left;" vertex="1" parent="1">
          <mxGeometry x="290" y="740" width="160" height="110" as="geometry" />
        </mxCell>
        <mxCell id="OJCGHoA61KZwXOzBD94Q-46" value="Option 2: HDFS Workaround&#xa;✓ Currently Working&#xa;✓ Reliable&#xa;✗ Additional Latency&#xa;✗ Temporary Solution&#xa;Status: Active (Short-term)" style="rounded=1;whiteSpace=wrap;html=1;fillColor=#f6ffed;strokeColor=#52c41a;fontSize=10;align=left;" vertex="1" parent="1">
          <mxGeometry x="470" y="740" width="160" height="110" as="geometry" />
        </mxCell>
        <mxCell id="OJCGHoA61KZwXOzBD94Q-47" value="Option 3: REST API&#xa;✓ Easy Implementation&#xa;✗ Rate Limiting&#xa;✗ Performance Issues&#xa;✗ Not Scalable&#xa;Recommendation: Avoid" style="rounded=1;whiteSpace=wrap;html=1;fillColor=#fff7e6;strokeColor=#fa8c16;fontSize=10;align=left;" vertex="1" parent="1">
          <mxGeometry x="650" y="740" width="160" height="110" as="geometry" />
        </mxCell>
        <mxCell id="OJCGHoA61KZwXOzBD94Q-48" value="Option 4: Redis Streams&#xa;✓ High Performance&#xa;✓ Real-time Streaming&#xa;✗ Additional Complexity&#xa;✗ New Infrastructure&#xa;Status: Under Evaluation" style="rounded=1;whiteSpace=wrap;html=1;fillColor=#f0f5ff;strokeColor=#722ed1;fontSize=10;align=left;" vertex="1" parent="1">
          <mxGeometry x="830" y="740" width="160" height="110" as="geometry" />
        </mxCell>
        <mxCell id="OJCGHoA61KZwXOzBD94Q-49" value="Recommended Implementation Path:" style="text;html=1;strokeColor=none;fillColor=none;align=left;verticalAlign=middle;whiteSpace=wrap;rounded=0;fontSize=14;fontStyle=1;fontColor=#1890ff;" vertex="1" parent="1">
          <mxGeometry x="1030" y="740" width="250" height="20" as="geometry" />
        </mxCell>
        <mxCell id="OJCGHoA61KZwXOzBD94Q-50" value="Immediate:&#xa;Use HDFS Option" style="rounded=1;whiteSpace=wrap;html=1;fillColor=#f6ffed;strokeColor=#52c41a;fontSize=10;fontStyle=1;align=center;" vertex="1" parent="1">
          <mxGeometry x="1030" y="770" width="100" height="50" as="geometry" />
        </mxCell>
        <mxCell id="OJCGHoA61KZwXOzBD94Q-51" value="Priority:&#xa;Fix SSL Issues" style="rounded=1;whiteSpace=wrap;html=1;fillColor=#fff2f0;strokeColor=#ff4d4f;fontSize=10;fontStyle=1;align=center;" vertex="1" parent="1">
          <mxGeometry x="1150" y="770" width="100" height="50" as="geometry" />
        </mxCell>
        <mxCell id="OJCGHoA61KZwXOzBD94Q-52" value="Final:&#xa;Migrate to Option 1" style="rounded=1;whiteSpace=wrap;html=1;fillColor=#e6f7ff;strokeColor=#1890ff;fontSize=10;fontStyle=1;align=center;" vertex="1" parent="1">
          <mxGeometry x="1270" y="770" width="100" height="50" as="geometry" />
        </mxCell>
        <mxCell id="OJCGHoA61KZwXOzBD94Q-53" value="1" style="edgeStyle=orthogonalEdgeStyle;rounded=0;orthogonalLoop=1;jettySize=auto;html=1;fontSize=12;fontColor=#52c41a;strokeColor=#52c41a;fontStyle=1;" edge="1" parent="1" source="OJCGHoA61KZwXOzBD94Q-50" target="OJCGHoA61KZwXOzBD94Q-51">
          <mxGeometry relative="1" as="geometry" />
        </mxCell>
        <mxCell id="OJCGHoA61KZwXOzBD94Q-54" value="2" style="edgeStyle=orthogonalEdgeStyle;rounded=0;orthogonalLoop=1;jettySize=auto;html=1;fontSize=12;fontColor=#1890ff;strokeColor=#1890ff;fontStyle=1;" edge="1" parent="1" source="OJCGHoA61KZwXOzBD94Q-51" target="OJCGHoA61KZwXOzBD94Q-52">
          <mxGeometry relative="1" as="geometry" />
        </mxCell>
      </root>
    </mxGraphModel>
  </diagram>
</mxfile>
